<?xml version="1.0" encoding="utf-8"?>
<svg xmlns="http://www.w3.org/2000/svg" style="margin: auto; background: none; display: block; shape-rendering: auto;" width="281" height="96" preserveAspectRatio="xMidYMid">
<style type="text/css">
  text {
    text-anchor: middle; font-size: 50px; opacity: 0;
  }
</style>
<g style="transform-origin:140.5px 48px;transform:scale(1)">
<g transform="translate(140.5,48)">
  <g transform="translate(0,0)"><g class="path" style="opacity: 1; transform-origin: -97.175px -3.96682px; animation: 1s linear -0.6s infinite normal forwards running fade-1eae3c3c-3c8e-417f-a2d3-d7b635b4694b;"><path d="M25.30-4.25L25.30 0L4.50 0L4.50-35L9.25-35L9.25-4.25L25.30-4.25" fill="#ffffff" stroke="none" stroke-width="none" transform="translate(-112.07501220703125,13.533182872425419)" style="fill: rgb(255, 255, 255);"></path></g><g class="path" style="opacity: 1; transform-origin: -71.575px 0.533183px; animation: 1s linear -0.54s infinite normal forwards running fade-1eae3c3c-3c8e-417f-a2d3-d7b635b4694b;"><path d="M48.85-13L48.85-13L48.85-13Q48.85-14.95 48.23-16.70L48.23-16.70L48.23-16.70Q47.60-18.45 46.48-19.75L46.48-19.75L46.48-19.75Q45.35-21.05 43.83-21.83L43.83-21.83L43.83-21.83Q42.30-22.60 40.50-22.60L40.50-22.60L40.50-22.60Q36.55-22.60 34.35-20L34.35-20L34.35-20Q32.15-17.40 32.15-13.10L32.15-13.10L32.15-13.10Q32.15-11.15 32.77-9.38L32.77-9.38L32.77-9.38Q33.40-7.60 34.52-6.28L34.52-6.28L34.52-6.28Q35.65-4.95 37.17-4.17L37.17-4.17L37.17-4.17Q38.70-3.40 40.50-3.40L40.50-3.40L40.50-3.40Q42.45-3.40 44-4.10L44-4.10L44-4.10Q45.55-4.80 46.63-6.08L46.63-6.08L46.63-6.08Q47.70-7.35 48.28-9.10L48.28-9.10L48.28-9.10Q48.85-10.85 48.85-13zM27.55-13L27.55-13L27.55-13Q27.55-16.15 28.55-18.68L28.55-18.68L28.55-18.68Q29.55-21.20 31.28-22.95L31.28-22.95L31.28-22.95Q33-24.70 35.38-25.65L35.38-25.65L35.38-25.65Q37.75-26.60 40.50-26.60L40.50-26.60L40.50-26.60Q43.20-26.60 45.58-25.65L45.58-25.65L45.58-25.65Q47.95-24.70 49.70-22.95L49.70-22.95L49.70-22.95Q51.45-21.20 52.45-18.70L52.45-18.70L52.45-18.70Q53.45-16.20 53.45-13.10L53.45-13.10L53.45-13.10Q53.45-10 52.48-7.48L52.48-7.48L52.48-7.48Q51.50-4.95 49.75-3.15L49.75-3.15L49.75-3.15Q48-1.35 45.63-0.38L45.63-0.38L45.63-0.38Q43.25 0.60 40.50 0.60L40.50 0.60L40.50 0.60Q37.70 0.60 35.33-0.40L35.33-0.40L35.33-0.40Q32.95-1.40 31.23-3.20L31.23-3.20L31.23-3.20Q29.50-5 28.53-7.50L28.53-7.50L28.53-7.50Q27.55-10 27.55-13" fill="#ffffff" stroke="none" stroke-width="none" transform="translate(-112.07501220703125,13.533182872425419)" style="fill: rgb(255, 255, 255);"></path></g><g class="path" style="opacity: 1; transform-origin: -41.075px 0.533183px; animation: 1s linear -0.48s infinite normal forwards running fade-1eae3c3c-3c8e-417f-a2d3-d7b635b4694b;"><path d="M57.70-12.85L57.70-12.85L57.70-12.85Q57.70-15.75 58.60-18.28L58.60-18.28L58.60-18.28Q59.50-20.80 61.13-22.65L61.13-22.65L61.13-22.65Q62.75-24.50 65.03-25.55L65.03-25.55L65.03-25.55Q67.30-26.60 70-26.60L70-26.60L70-26.60Q72.25-26.60 74.08-25.83L74.08-25.83L74.08-25.83Q75.90-25.05 77.25-23.90L77.25-23.90L77.25-26L81.35-26L81.35-6.30L81.35-6.30Q81.35-4.40 82.28-3.83L82.28-3.83L82.28-3.83Q83.20-3.25 84.30-3.25L84.30-3.25L83.35 0.25L83.35 0.25Q78.55 0.25 77.55-3.65L77.55-3.65L77.55-3.65Q76.95-2.85 76.18-2.08L76.18-2.08L76.18-2.08Q75.40-1.30 74.40-0.70L74.40-0.70L74.40-0.70Q73.40-0.10 72.15 0.25L72.15 0.25L72.15 0.25Q70.90 0.60 69.40 0.60L69.40 0.60L69.40 0.60Q66.95 0.60 64.83-0.35L64.83-0.35L64.83-0.35Q62.70-1.30 61.13-3.05L61.13-3.05L61.13-3.05Q59.55-4.80 58.63-7.28L58.63-7.28L58.63-7.28Q57.70-9.75 57.70-12.85zM70.40-3.40L70.40-3.40L70.40-3.40Q72.30-3.40 74-4.30L74-4.30L74-4.30Q75.70-5.20 76.85-6.65L76.85-6.65L76.85-20.60L76.85-20.60Q75.50-21.55 73.88-22.13L73.88-22.13L73.88-22.13Q72.25-22.70 70.45-22.70L70.45-22.70L70.45-22.70Q68.65-22.70 67.15-22L67.15-22L67.15-22Q65.65-21.30 64.58-20.03L64.58-20.03L64.58-20.03Q63.50-18.75 62.90-16.95L62.90-16.95L62.90-16.95Q62.30-15.15 62.30-13L62.30-13L62.30-13Q62.30-10.90 62.90-9.13L62.90-9.13L62.90-9.13Q63.50-7.35 64.60-6.08L64.60-6.08L64.60-6.08Q65.70-4.80 67.18-4.10L67.18-4.10L67.18-4.10Q68.65-3.40 70.40-3.40" fill="#ffffff" stroke="none" stroke-width="none" transform="translate(-112.07501220703125,13.533182872425419)" style="fill: rgb(255, 255, 255);"></path></g><g class="path" style="opacity: 1; transform-origin: -10.825px -4.66682px; animation: 1s linear -0.42s infinite normal forwards running fade-1eae3c3c-3c8e-417f-a2d3-d7b635b4694b;"><path d="M99.65 0.60L99.65 0.60L99.65 0.60Q97.25 0.60 95.13-0.35L95.13-0.35L95.13-0.35Q93.00-1.30 91.43-3.05L91.43-3.05L91.43-3.05Q89.85-4.80 88.95-7.28L88.95-7.28L88.95-7.28Q88.05-9.75 88.05-12.85L88.05-12.85L88.05-12.85Q88.05-15.80 88.98-18.32L88.98-18.32L88.98-18.32Q89.90-20.85 91.48-22.68L91.48-22.68L91.48-22.68Q93.05-24.50 95.15-25.55L95.15-25.55L95.15-25.55Q97.25-26.60 99.60-26.60L99.60-26.60L99.60-26.60Q102.20-26.60 104.08-25.55L104.08-25.55L104.08-25.55Q105.95-24.50 107.00-23.40L107.00-23.40L107.00-37L111.50-37L111.50-6.30L111.50-6.30Q111.50-4.40 112.43-3.83L112.43-3.83L112.43-3.83Q113.35-3.25 114.45-3.25L114.45-3.25L113.50 0.25L113.50 0.25Q108.75 0.25 107.70-3.55L107.70-3.55L107.70-3.55Q106.55-1.95 104.60-0.68L104.60-0.68L104.60-0.68Q102.65 0.60 99.65 0.60zM100.65-3.40L100.65-3.40L100.65-3.40Q102.50-3.40 104.18-4.28L104.18-4.28L104.18-4.28Q105.85-5.15 107.00-6.55L107.00-6.55L107.00-19.45L107.00-19.45Q106.05-20.65 104.38-21.68L104.38-21.68L104.38-21.68Q102.70-22.70 100.60-22.70L100.60-22.70L100.60-22.70Q98.80-22.70 97.33-21.95L97.33-21.95L97.33-21.95Q95.85-21.20 94.80-19.90L94.80-19.90L94.80-19.90Q93.75-18.60 93.20-16.82L93.20-16.82L93.20-16.82Q92.65-15.05 92.65-13L92.65-13L92.65-13Q92.65-10.90 93.25-9.15L93.25-9.15L93.25-9.15Q93.85-7.40 94.93-6.13L94.93-6.13L94.93-6.13Q96.00-4.85 97.48-4.13L97.48-4.13L97.48-4.13Q98.95-3.40 100.65-3.40" fill="#ffffff" stroke="none" stroke-width="none" transform="translate(-112.07501220703125,13.533182872425419)" style="fill: rgb(255, 255, 255);"></path></g><g class="path" style="opacity: 1; transform-origin: 10.625px 0.533183px; animation: 1s linear -0.36s infinite normal forwards running fade-1eae3c3c-3c8e-417f-a2d3-d7b635b4694b;"><path d="M124.95-26L124.95 0L120.45 0L120.45-26L124.95-26" fill="#ffffff" stroke="none" stroke-width="none" transform="translate(-112.07501220703125,13.533182872425419)" style="fill: rgb(255, 255, 255);"></path></g><g class="path" style="opacity: 1; transform-origin: 10.625px -20.0668px; animation: 1s linear -0.3s infinite normal forwards running fade-1eae3c3c-3c8e-417f-a2d3-d7b635b4694b;"><path d="M122.70-30.45L122.70-30.45L122.70-30.45Q121.40-30.45 120.48-31.38L120.48-31.38L120.48-31.38Q119.55-32.30 119.55-33.60L119.55-33.60L119.55-33.60Q119.55-35.05 120.40-35.90L120.40-35.90L120.40-35.90Q121.25-36.75 122.70-36.75L122.70-36.75L122.70-36.75Q124.00-36.75 124.93-35.83L124.93-35.83L124.93-35.83Q125.85-34.90 125.85-33.60L125.85-33.60L125.85-33.60Q125.85-32.15 125.00-31.30L125.00-31.30L125.00-31.30Q124.15-30.45 122.70-30.45" fill="#ffffff" stroke="none" stroke-width="none" transform="translate(-112.07501220703125,13.533182872425419)" style="fill: rgb(255, 255, 255);"></path></g><g class="path" style="opacity: 1; transform-origin: 31.8px 0.233183px; animation: 1s linear -0.24s infinite normal forwards running fade-1eae3c3c-3c8e-417f-a2d3-d7b635b4694b;"><path d="M137.30-26L137.30-21.65L137.30-21.65Q138.70-23.75 140.88-25.18L140.88-25.18L140.88-25.18Q143.05-26.60 146.05-26.60L146.05-26.60L146.05-26.60Q150.45-26.60 152.63-23.95L152.63-23.95L152.63-23.95Q154.80-21.30 154.80-16.95L154.80-16.95L154.80 0L150.30 0L150.30-16.45L150.30-16.45Q150.30-19.30 149.00-20.98L149.00-20.98L149.00-20.98Q147.70-22.65 145.30-22.65L145.30-22.65L145.30-22.65Q144.15-22.65 143.05-22.23L143.05-22.23L143.05-22.23Q141.95-21.80 140.93-21.05L140.93-21.05L140.93-21.05Q139.90-20.30 139.03-19.30L139.03-19.30L139.03-19.30Q138.15-18.30 137.45-17.20L137.45-17.20L137.45 0L132.95 0L132.95-26L137.30-26" fill="#ffffff" stroke="none" stroke-width="none" transform="translate(-112.07501220703125,13.533182872425419)" style="fill: rgb(255, 255, 255);"></path></g><g class="path" style="opacity: 1; transform-origin: 60.35px 6.03318px; animation: 1s linear -0.18s infinite normal forwards running fade-1eae3c3c-3c8e-417f-a2d3-d7b635b4694b;"><path d="M172.85-26.60L172.85-26.60L172.85-26.60Q175.10-26.60 176.88-25.85L176.88-25.85L176.88-25.85Q178.65-25.10 179.95-24L179.95-24L179.95-26L184.05-26L184.05-0.60L184.05-0.60Q184.05 2.65 183.20 4.95L183.20 4.95L183.20 4.95Q182.35 7.25 180.78 8.72L180.78 8.72L180.78 8.72Q179.20 10.20 177 10.90L177 10.90L177 10.90Q174.80 11.60 172.10 11.60L172.10 11.60L172.10 11.60Q169.75 11.60 167.60 11.05L167.60 11.05L167.60 11.05Q165.45 10.50 163.75 9.40L163.75 9.40L165.40 5.50L165.40 5.50Q166.60 6.45 168.20 7.08L168.20 7.08L168.20 7.08Q169.80 7.70 172.10 7.70L172.10 7.70L172.10 7.70Q175.65 7.70 177.68 5.85L177.68 5.85L177.68 5.85Q179.70 4 179.70-0.15L179.70-0.15L179.70-3.35L179.70-3.35Q178.70-2.15 176.83-1.07L176.83-1.07L176.83-1.07Q174.95 0 172.35 0L172.35 0L172.35 0Q170.15 0 168.05-0.88L168.05-0.88L168.05-0.88Q165.95-1.75 164.35-3.43L164.35-3.43L164.35-3.43Q162.75-5.10 161.78-7.53L161.78-7.53L161.78-7.53Q160.80-9.95 160.80-13.10L160.80-13.10L160.80-13.10Q160.80-16 161.75-18.48L161.75-18.48L161.75-18.48Q162.70-20.95 164.33-22.75L164.33-22.75L164.33-22.75Q165.95-24.55 168.15-25.58L168.15-25.58L168.15-25.58Q170.35-26.60 172.85-26.60zM173.35-4L173.35-4L173.35-4Q175.35-4 176.95-4.90L176.95-4.90L176.95-4.90Q178.55-5.80 179.55-7L179.55-7L179.55-20.60L179.55-20.60Q178.40-21.40 176.90-22.05L176.90-22.05L176.90-22.05Q175.40-22.70 173.30-22.70L173.30-22.70L173.30-22.70Q171.75-22.70 170.33-22.08L170.33-22.08L170.33-22.08Q168.90-21.45 167.80-20.25L167.80-20.25L167.80-20.25Q166.70-19.05 166.05-17.32L166.05-17.32L166.05-17.32Q165.40-15.60 165.40-13.35L165.40-13.35L165.40-13.35Q165.40-11.20 166.05-9.47L166.05-9.47L166.05-9.47Q166.70-7.75 167.80-6.53L167.80-6.53L167.80-6.53Q168.90-5.30 170.33-4.65L170.33-4.65L170.33-4.65Q171.75-4 173.35-4" fill="#ffffff" stroke="none" stroke-width="none" transform="translate(-112.07501220703125,13.533182872425419)" style="fill: rgb(255, 255, 255);"></path></g><g class="path" style="opacity: 1; transform-origin: 83.225px 10.7832px; animation: 1s linear -0.12s infinite normal forwards running fade-1eae3c3c-3c8e-417f-a2d3-d7b635b4694b;"><path d="M191.95-2.75L191.95-2.75L191.95-2.75Q191.95-4.30 192.83-5.20L192.83-5.20L192.83-5.20Q193.70-6.10 195.30-6.10L195.30-6.10L195.30-6.10Q196.60-6.10 197.63-5.10L197.63-5.10L197.63-5.10Q198.65-4.10 198.65-2.75L198.65-2.75L198.65-2.75Q198.65-1.25 197.70-0.33L197.70-0.33L197.70-0.33Q196.75 0.60 195.30 0.60L195.30 0.60L195.30 0.60Q193.95 0.60 192.95-0.40L192.95-0.40L192.95-0.40Q191.95-1.40 191.95-2.75" fill="#ffffff" stroke="none" stroke-width="none" transform="translate(-112.07501220703125,13.533182872425419)" style="fill: rgb(255, 255, 255);"></path></g><g class="path" style="opacity: 1; transform-origin: 98.225px 10.7832px; animation: 1s linear -0.06s infinite normal forwards running fade-1eae3c3c-3c8e-417f-a2d3-d7b635b4694b;"><path d="M206.95-2.75L206.95-2.75L206.95-2.75Q206.95-4.30 207.83-5.20L207.83-5.20L207.83-5.20Q208.70-6.10 210.30-6.10L210.30-6.10L210.30-6.10Q211.60-6.10 212.63-5.10L212.63-5.10L212.63-5.10Q213.65-4.10 213.65-2.75L213.65-2.75L213.65-2.75Q213.65-1.25 212.70-0.33L212.70-0.33L212.70-0.33Q211.75 0.60 210.30 0.60L210.30 0.60L210.30 0.60Q208.95 0.60 207.95-0.40L207.95-0.40L207.95-0.40Q206.95-1.40 206.95-2.75" fill="#ffffff" stroke="none" stroke-width="none" transform="translate(-112.07501220703125,13.533182872425419)" style="fill: rgb(255, 255, 255);"></path></g><g class="path" style="opacity: 1; transform-origin: 113.225px 10.7832px; animation: 1s linear 0s infinite normal forwards running fade-1eae3c3c-3c8e-417f-a2d3-d7b635b4694b;"><path d="M221.95-2.75L221.95-2.75L221.95-2.75Q221.95-4.30 222.83-5.20L222.83-5.20L222.83-5.20Q223.70-6.10 225.30-6.10L225.30-6.10L225.30-6.10Q226.60-6.10 227.63-5.10L227.63-5.10L227.63-5.10Q228.65-4.10 228.65-2.75L228.65-2.75L228.65-2.75Q228.65-1.25 227.70-0.33L227.70-0.33L227.70-0.33Q226.75 0.60 225.30 0.60L225.30 0.60L225.30 0.60Q223.95 0.60 222.95-0.40L222.95-0.40L222.95-0.40Q221.95-1.40 221.95-2.75" fill="#ffffff" stroke="none" stroke-width="none" transform="translate(-112.07501220703125,13.533182872425419)" style="fill: rgb(255, 255, 255);"></path></g></g>
</g>
</g>
<style id="fade-1eae3c3c-3c8e-417f-a2d3-d7b635b4694b" data-anikit="">@keyframes fade-1eae3c3c-3c8e-417f-a2d3-d7b635b4694b
{
  0% {
    animation-timing-function: cubic-bezier(0.2057,0.573,0.3723,0.9184);
    opacity: 1;
  }
  100% {
    opacity: 0;
  }
}</style></svg>